<?xml version="1.0" standalone="no"?>
<!DOCTYPE svg PUBLIC "-//W3C//DTD SVG 20010904//EN"
 "http://www.w3.org/TR/2001/REC-SVG-20010904/DTD/svg10.dtd">
<svg version="1.0" xmlns="http://www.w3.org/2000/svg"
 width="726.000000pt" height="120.000000pt" viewBox="0 0 726.000000 120.000000"
 preserveAspectRatio="xMidYMid meet">
<metadata>
Created by potrace 1.13, written by Peter Selinger 2001-2015
</metadata>
<g transform="translate(0.000000,120.000000) scale(0.100000,-0.100000)"
fill="#000000" stroke="none">
<path d="M4954 1153 c3 -27 9 -114 13 -195 l6 -148 -39 -1 c-21 -1 -50 -5 -64
-9 -18 -6 -7 -8 41 -9 l66 -1 7 -62 c12 -122 38 -240 56 -258 22 -22 111 -34
160 -21 l35 9 -32 1 c-53 2 -80 17 -92 53 -15 42 -41 202 -41 251 l0 37 68 2
67 2 -70 5 -70 6 -8 120 c-4 66 -10 153 -13 193 l-6 72 -45 0 -46 0 7 -47z"/>
<path d="M5415 1108 c-3 -7 -4 -157 -2 -333 l2 -320 49 -3 c41 -3 48 -1 43 12
-5 12 0 16 23 16 45 0 190 61 227 96 l33 31 0 107 c0 120 -2 127 -83 244 -68
100 -107 132 -158 132 -26 0 -42 5 -45 15 -8 19 -82 21 -89 3z m177 -122 c25
-32 60 -84 77 -116 28 -53 31 -66 31 -153 0 -117 -10 -133 -114 -176 -41 -17
-77 -31 -80 -31 -3 0 -6 127 -6 281 l0 281 23 -14 c12 -8 43 -41 69 -72z"/>
<path d="M5917 1023 c-58 -80 -78 -126 -84 -201 -3 -38 -3 -85 1 -104 9 -48
58 -120 105 -152 35 -24 44 -27 82 -19 l44 9 -37 22 c-46 29 -94 100 -103 154
-12 72 3 160 38 218 18 29 37 55 43 57 16 5 43 -100 50 -197 4 -57 1 -107 -8
-152 l-14 -67 39 -6 c21 -4 43 -3 47 1 13 13 30 120 30 183 0 78 -18 178 -40
228 -18 41 -19 42 -57 36 -33 -6 -36 -4 -25 9 10 13 9 17 -10 22 -50 13 -66 6
-101 -41z"/>
<path d="M7019 958 c-1 -35 0 -153 1 -263 1 -110 -1 -197 -6 -193 -4 4 -42
119 -84 255 l-77 248 -51 3 -50 3 -12 -68 c-6 -37 -34 -152 -61 -254 -27 -103
-49 -194 -49 -203 0 -12 10 -16 43 -16 l43 0 27 118 c15 64 38 151 50 192 l24
75 56 -170 c31 -93 74 -232 96 -308 22 -76 43 -141 45 -146 3 -4 24 -5 46 -2
l42 6 2 393 3 392 -44 0 -43 0 -1 -62z"/>
<path d="M1135 991 c-39 -8 -62 -66 -109 -271 -56 -251 -77 -283 -124 -188
-17 34 -28 83 -38 175 -8 70 -16 132 -17 137 -2 5 -21 9 -44 10 l-40 1 -6
-150 c-12 -268 -55 -445 -146 -596 -21 -35 -53 -74 -71 -87 l-33 -22 57 0 c52
0 60 3 86 32 58 63 153 274 165 367 11 80 13 83 38 66 30 -21 170 -21 187 0 6
8 20 40 30 72 l19 58 1 -45 c1 -85 17 -121 89 -190 68 -66 292 -208 369 -233
37 -12 102 -12 102 1 0 4 -18 14 -39 23 -98 42 -303 174 -360 234 -54 56 -60
66 -66 119 -7 56 -2 246 11 414 7 91 9 88 -61 73z"/>
<path d="M6213 878 c5 -77 29 -230 52 -335 5 -20 12 -23 56 -23 48 0 51 1 77
45 15 24 30 45 33 45 3 0 11 -19 18 -42 18 -60 39 -90 59 -84 9 2 29 7 43 10
24 5 27 13 47 108 12 57 26 154 31 216 6 62 13 117 16 123 4 5 -15 9 -44 9
-28 0 -51 -3 -51 -7 -1 -24 -21 -215 -26 -252 l-7 -44 -12 30 c-10 24 -21 31
-50 36 -46 7 -48 6 -85 -44 l-28 -40 -11 53 c-21 102 -31 173 -31 231 l0 57
-47 0 -46 0 6 -92z"/>
<path d="M3500 941 c-119 -38 -222 -109 -258 -175 -11 -22 -16 -59 -16 -131
-1 -140 20 -204 88 -272 l53 -53 111 0 c94 0 118 3 157 22 25 12 45 25 45 29
0 4 -17 9 -37 11 -27 4 -52 -2 -85 -18 -70 -35 -100 -32 -153 17 -65 60 -88
127 -88 255 1 139 25 181 147 249 84 46 155 65 250 66 111 2 52 16 -69 17 -61
1 -108 -5 -145 -17z"/>
<path d="M1510 838 c-94 -59 -141 -148 -155 -295 -10 -94 6 -148 59 -198 49
-48 99 -65 188 -65 121 0 212 44 268 128 51 77 111 298 96 355 -9 39 -77 73
-157 82 -76 7 -157 -3 -124 -16 11 -4 42 -8 69 -8 55 -1 111 -30 122 -63 17
-54 -33 -248 -86 -331 -32 -51 -101 -101 -162 -118 -49 -13 -91 5 -139 58 -43
48 -54 95 -44 191 14 134 63 217 162 273 31 18 53 34 47 35 -56 14 -87 8 -144
-28z"/>
<path d="M1990 813 c0 -16 7 -63 15 -106 8 -43 19 -117 25 -164 5 -46 21 -123
35 -170 l26 -85 41 6 c23 4 44 9 48 11 4 3 11 35 15 72 16 156 86 299 171 352
36 22 42 30 29 35 -84 32 -204 -68 -252 -209 l-17 -50 -12 80 c-7 44 -19 119
-26 168 l-12 87 -43 0 c-40 0 -43 -2 -43 -27z"/>
<path d="M4560 809 c-70 -14 -94 -45 -98 -129 -3 -39 -9 -70 -15 -70 -11 0 -4
-211 9 -243 4 -12 18 -17 50 -17 l44 0 0 179 c0 98 5 191 10 208 13 35 57 60
74 43 7 -7 13 -73 16 -163 3 -92 10 -160 17 -173 19 -32 65 -47 120 -39 l48 7
-37 15 c-20 8 -40 22 -44 31 -4 9 -10 85 -13 168 -5 130 -9 155 -25 173 -21
23 -72 26 -156 10z"/>
<path d="M2906 731 c-36 -38 -105 -65 -208 -81 -43 -7 -78 -14 -78 -16 0 -2
14 -23 31 -48 29 -41 32 -52 33 -126 1 -80 1 -82 -32 -108 -18 -15 -30 -31
-26 -35 12 -11 233 -8 256 4 11 6 34 27 51 46 53 61 87 62 164 5 30 -22 38
-23 104 -17 l71 7 -28 25 c-65 55 -108 65 -249 61 -71 -3 -138 -8 -147 -12
-16 -7 -18 -2 -18 38 0 46 0 46 33 44 33 -2 247 61 247 73 0 4 -28 10 -62 13
-51 5 -78 2 -143 -18 l-80 -24 -17 22 c-25 30 -23 34 20 41 88 15 169 45 207
79 22 19 38 36 35 39 -3 3 -34 8 -70 12 -63 6 -66 6 -94 -24z"/>
<path d="M2476 663 c-10 -103 -37 -226 -62 -281 -13 -30 -24 -56 -24 -58 0 -2
19 -4 43 -4 43 0 44 1 70 58 33 71 57 175 60 267 l2 70 -42 3 -41 3 -6 -58z"/>
<path d="M4146 623 c-3 -10 -14 -67 -26 -128 -31 -165 -19 -181 133 -179 117
2 137 31 137 197 l0 87 -47 0 -48 0 0 -103 c0 -82 -4 -109 -18 -130 -21 -33
-52 -35 -71 -4 -16 24 -9 101 19 205 8 31 13 57 12 58 -1 1 -21 5 -44 9 -35 5
-42 4 -47 -12z"/>
<path d="M3802 573 c-44 -68 -83 -158 -89 -202 -4 -32 -1 -41 22 -59 24 -19
40 -22 126 -22 114 0 132 10 144 78 7 44 -10 148 -26 158 -5 3 -27 3 -48 -1
l-37 -6 14 -58 c26 -109 -17 -180 -84 -136 -23 15 -25 21 -19 53 8 48 46 130
85 187 l31 45 -30 0 c-16 0 -36 2 -44 6 -9 3 -25 -11 -45 -43z"/>
</g>
</svg>
